<svg width="1107" height="503" viewBox="0 0 1107 503" fill="none" xmlns="http://www.w3.org/2000/svg">
<rect x="82" y="82" width="943" height="339" rx="50" fill="url(#paint0_radial_70_13)"/>
<path d="M287 187.774C293.188 184.201 300.812 184.201 307 187.774L346.756 210.726C352.944 214.299 356.756 220.902 356.756 228.047V273.953C356.756 281.098 352.944 287.701 346.756 291.273L307 314.227C300.812 317.799 293.188 317.799 287 314.227L247.244 291.274C241.056 287.701 237.244 281.098 237.244 273.953V228.047C237.244 220.902 241.056 214.299 247.244 210.726L287 187.774Z" fill="white"/>
<path d="M291.903 256.247C291.903 252.534 289.845 249.126 286.559 247.397L251.009 228.698C247.68 226.947 243.682 229.361 243.682 233.123V275.248C243.682 278.828 245.596 282.135 248.7 283.919L284.413 304.438C287.746 306.353 291.903 303.947 291.903 300.102V256.247Z" fill="black"/>
<path d="M411 251.2V243.8H422.3C424.233 243.8 425.867 243.5 427.2 242.9C428.6 242.3 429.667 241.467 430.4 240.4C431.133 239.267 431.5 237.9 431.5 236.3C431.5 233.9 430.7 232.1 429.1 230.9C427.5 229.7 425.233 229.1 422.3 229.1H415.3V272.9H423.9C426.1 272.9 428.067 272.633 429.8 272.1C431.533 271.5 432.9 270.567 433.9 269.3C434.967 267.967 435.5 266.167 435.5 263.9C435.5 262.433 435.2 261.167 434.6 260.1C434 259.033 433.167 258.167 432.1 257.5C431.033 256.833 429.8 256.367 428.4 256.1C427.067 255.767 425.567 255.6 423.9 255.6H411V246.4H425.8C429.2 246.4 432.5 246.767 435.7 247.5C438.9 248.233 441.8 249.433 444.4 251.1C447 252.7 449.067 254.767 450.6 257.3C452.2 259.767 453 262.767 453 266.3C453 270.967 451.867 274.733 449.6 277.6C447.4 280.467 444.267 282.6 440.2 284C436.133 285.333 431.333 286 425.8 286H398.4V216H424.1C428.967 216 433.233 216.667 436.9 218C440.633 219.267 443.567 221.233 445.7 223.9C447.9 226.5 449 229.8 449 233.8C449 237.467 447.9 240.6 445.7 243.2C443.567 245.8 440.633 247.8 436.9 249.2C433.233 250.533 428.967 251.2 424.1 251.2H411ZM459.406 222.7C459.406 220.3 460.273 218.367 462.006 216.9C463.74 215.367 465.806 214.6 468.206 214.6C470.673 214.6 472.74 215.367 474.406 216.9C476.14 218.367 477.006 220.3 477.006 222.7C477.006 225.1 476.14 227.067 474.406 228.6C472.74 230.133 470.673 230.9 468.206 230.9C465.806 230.9 463.74 230.133 462.006 228.6C460.273 227.067 459.406 225.1 459.406 222.7ZM460.906 240H475.506V286H460.906V240ZM484.943 208H500.143V286H484.943V208ZM508.896 208H524.096V286H508.896V208ZM527.349 231.1V216H582.749V231.1H563.449V286H546.549V231.1H527.349ZM592.796 240V286H577.896V240H592.796ZM606.096 255.6C605.296 254.8 604.429 254.167 603.496 253.7C602.629 253.233 601.529 253 600.196 253C598.729 253 597.429 253.4 596.296 254.2C595.163 255 594.296 256.167 593.696 257.7C593.096 259.233 592.796 261.1 592.796 263.3L589.196 258C589.196 254.333 589.896 251.067 591.296 248.2C592.763 245.333 594.663 243.067 596.996 241.4C599.329 239.733 601.763 238.9 604.296 238.9C605.963 238.9 607.563 239.233 609.096 239.9C610.629 240.567 611.796 241.5 612.596 242.7L606.096 255.6ZM627.709 271.6C627.709 272.8 628.009 273.833 628.609 274.7C629.209 275.5 630.009 276.133 631.009 276.6C632.009 277 633.109 277.2 634.309 277.2C636.043 277.2 637.643 276.833 639.109 276.1C640.576 275.367 641.776 274.267 642.709 272.8C643.643 271.333 644.109 269.533 644.109 267.4L645.709 273.4C645.709 276.333 644.909 278.833 643.309 280.9C641.709 282.9 639.643 284.433 637.109 285.5C634.576 286.5 631.843 287 628.909 287C625.976 287 623.243 286.467 620.709 285.4C618.243 284.267 616.243 282.6 614.709 280.4C613.243 278.2 612.509 275.533 612.509 272.4C612.509 268 614.076 264.533 617.209 262C620.343 259.4 624.776 258.1 630.509 258.1C633.309 258.1 635.809 258.367 638.009 258.9C640.276 259.433 642.209 260.1 643.809 260.9C645.409 261.7 646.609 262.533 647.409 263.4V270.1C645.809 268.9 643.943 268 641.809 267.4C639.743 266.733 637.543 266.4 635.209 266.4C633.409 266.4 631.976 266.6 630.909 267C629.843 267.4 629.043 268 628.509 268.8C627.976 269.533 627.709 270.467 627.709 271.6ZM621.009 254.1L615.909 244C618.509 242.733 621.643 241.533 625.309 240.4C628.976 239.267 632.976 238.7 637.309 238.7C641.376 238.7 645.009 239.3 648.209 240.5C651.409 241.633 653.943 243.3 655.809 245.5C657.676 247.7 658.609 250.4 658.609 253.6V286H644.109V257C644.109 255.867 643.909 254.9 643.509 254.1C643.176 253.233 642.643 252.5 641.909 251.9C641.176 251.3 640.243 250.867 639.109 250.6C638.043 250.333 636.809 250.2 635.409 250.2C633.343 250.2 631.309 250.433 629.309 250.9C627.376 251.367 625.676 251.933 624.209 252.6C622.743 253.2 621.676 253.7 621.009 254.1ZM679.616 263C679.616 265.467 680.149 267.6 681.216 269.4C682.282 271.133 683.749 272.5 685.616 273.5C687.549 274.5 689.616 275 691.816 275C693.682 275 695.449 274.733 697.116 274.2C698.849 273.6 700.416 272.8 701.816 271.8C703.282 270.8 704.482 269.567 705.416 268.1V282.8C703.816 284.067 701.816 285.1 699.416 285.9C697.016 286.633 694.082 287 690.616 287C685.549 287 680.982 286 676.916 284C672.916 282 669.749 279.2 667.416 275.6C665.149 272 664.016 267.8 664.016 263C664.016 258.133 665.149 253.933 667.416 250.4C669.749 246.8 672.916 244 676.916 242C680.982 240 685.549 239 690.616 239C694.082 239 697.016 239.4 699.416 240.2C701.816 240.933 703.816 241.867 705.416 243V257.8C704.482 256.333 703.249 255.1 701.716 254.1C700.249 253.1 698.649 252.333 696.916 251.8C695.182 251.267 693.482 251 691.816 251C689.616 251 687.549 251.533 685.616 252.6C683.749 253.667 682.282 255.1 681.216 256.9C680.149 258.7 679.616 260.733 679.616 263ZM713.23 208H727.73V286H713.23V208ZM744.43 240H762.53L742.83 259L764.53 286H746.73L724.73 259L744.43 240ZM789.98 287C784.646 287 780.013 286.033 776.08 284.1C772.213 282.1 769.213 279.3 767.08 275.7C764.946 272.1 763.88 267.867 763.88 263C763.88 258.067 764.913 253.8 766.98 250.2C769.046 246.6 772.013 243.833 775.88 241.9C779.813 239.967 784.446 239 789.78 239C795.113 239 799.613 239.933 803.28 241.8C806.946 243.6 809.746 246.233 811.68 249.7C813.613 253.167 814.58 257.367 814.58 262.3C814.58 263.033 814.58 263.767 814.58 264.5C814.58 265.167 814.513 265.733 814.38 266.2H772.38V257.8H800.78L797.18 262.4C797.513 261.933 797.78 261.367 797.98 260.7C798.246 259.967 798.38 259.367 798.38 258.9C798.38 256.9 798.013 255.167 797.28 253.7C796.546 252.233 795.513 251.1 794.18 250.3C792.846 249.5 791.28 249.1 789.48 249.1C787.213 249.1 785.313 249.6 783.78 250.6C782.246 251.6 781.08 253.133 780.28 255.2C779.546 257.2 779.146 259.733 779.08 262.8C779.08 265.6 779.48 268 780.28 270C781.08 272 782.28 273.533 783.88 274.6C785.48 275.6 787.446 276.1 789.78 276.1C792.446 276.1 794.713 275.6 796.58 274.6C798.513 273.6 800.046 272.1 801.18 270.1L814.68 273.4C812.28 277.933 809.013 281.333 804.88 283.6C800.813 285.867 795.846 287 789.98 287ZM835.804 240V286H820.904V240H835.804ZM849.104 255.6C848.304 254.8 847.437 254.167 846.504 253.7C845.637 253.233 844.537 253 843.204 253C841.737 253 840.437 253.4 839.304 254.2C838.171 255 837.304 256.167 836.704 257.7C836.104 259.233 835.804 261.1 835.804 263.3L832.204 258C832.204 254.333 832.904 251.067 834.304 248.2C835.771 245.333 837.671 243.067 840.004 241.4C842.337 239.733 844.771 238.9 847.304 238.9C848.971 238.9 850.571 239.233 852.104 239.9C853.637 240.567 854.804 241.5 855.604 242.7L849.104 255.6ZM853.86 279.2C853.86 276.667 854.76 274.5 856.56 272.7C858.36 270.9 860.593 270 863.26 270C866.06 270 868.327 270.9 870.06 272.7C871.793 274.5 872.66 276.667 872.66 279.2C872.66 281.733 871.793 283.9 870.06 285.7C868.327 287.5 866.06 288.4 863.26 288.4C860.593 288.4 858.36 287.5 856.56 285.7C854.76 283.9 853.86 281.733 853.86 279.2Z" fill="white"/>
<defs>
<radialGradient id="paint0_radial_70_13" cx="0" cy="0" r="1" gradientUnits="userSpaceOnUse" gradientTransform="translate(554 82) rotate(90.0845) scale(339 1061.29)">
<stop/>
<stop offset="1" stop-color="#1E022C"/>
</radialGradient>
</defs>
</svg>
